<svg width="126" height="131" viewBox="0 0 126 131" fill="none" xmlns="http://www.w3.org/2000/svg">
<g clip-path="url(#clip0_98_100)">
<path fill-rule="evenodd" clip-rule="evenodd" d="M23.625 28.6562H102.375C105.508 28.6562 108.512 29.9502 110.728 32.2533C112.943 34.5565 114.188 37.6803 114.188 40.9375V81.875C114.188 85.1322 112.943 88.256 110.728 90.5592C108.512 92.8623 105.508 94.1562 102.375 94.1562H23.625C20.4921 94.1562 17.4876 92.8623 15.2723 90.5592C13.057 88.256 11.8125 85.1322 11.8125 81.875V40.9375C11.8125 37.6803 13.057 34.5565 15.2723 32.2533C17.4876 29.9502 20.4921 28.6562 23.625 28.6562ZM21.9713 106.38C16.006 105.945 10.4214 103.174 6.34384 98.6263C2.26631 94.0785 -0.00071548 88.0923 1.69384e-07 81.875V40.9375C1.69384e-07 34.4231 2.48906 28.1756 6.9196 23.5692C11.3501 18.9628 17.3593 16.375 23.625 16.375H102.375C108.641 16.375 114.65 18.9628 119.08 23.5692C123.511 28.1756 126 34.4231 126 40.9375V81.875C126.001 88.0923 123.734 94.0785 119.656 98.6263C115.579 103.174 109.994 105.945 104.029 106.38L107.651 113.929C108.044 114.654 108.291 115.454 108.377 116.281C108.464 117.108 108.387 117.945 108.153 118.741C107.919 119.536 107.532 120.274 107.015 120.909C106.498 121.544 105.863 122.064 105.147 122.436C104.431 122.808 103.65 123.025 102.851 123.074C102.053 123.122 101.253 123.002 100.5 122.719C99.7472 122.437 99.0576 121.998 98.473 121.43C97.8883 120.862 97.4208 120.176 97.0987 119.415L90.846 106.438H35.154L28.9091 119.415C28.5664 120.143 28.0884 120.793 27.5029 121.328C26.9173 121.863 26.2357 122.272 25.4973 122.531C24.7589 122.791 23.9784 122.896 23.2008 122.841C22.4231 122.785 21.6637 122.571 20.9663 122.209C20.2689 121.847 19.6473 121.345 19.1374 120.732C18.6275 120.119 18.2393 119.407 17.9952 118.637C17.7512 117.868 17.656 117.055 17.7154 116.247C17.7747 115.439 17.9873 114.651 18.3409 113.929L21.9713 106.38Z" fill="#F0BA4E"/>
</g>
<path d="M60.0115 45.752L59.9155 46.232H65.1955L65.1315 46.552H60.2675L60.2355 46.712H62.2515L62.1555 47.352H62.8275L62.7635 47.832H63.1475L63.0515 48.312H63.0835L63.0195 48.792H63.1475V48.952H63.0835L62.9875 49.592H62.8915L62.7955 50.232L62.7315 50.872H63.3395L63.3075 51.032H62.9555V51.192H63.5955V51.352H62.5715L62.5395 51.512H62.1875L62.1235 51.992H63.1795L63.0835 52.632H64.2995L64.2355 53.112H63.2755L63.2435 53.272H62.7635L62.6675 53.912H62.9235L62.8915 54.232H63.1795L63.1155 54.712H62.6355L62.5715 55.192H61.5155L61.4835 55.512H62.5715L62.4755 56.152H61.7715L61.7075 56.792H62.3475L62.2835 57.272H59.8195L59.7555 57.592H60.6835L60.6515 57.784V57.912H61.5155C61.4942 57.9547 61.4728 58.008 61.4515 58.072C61.4515 58.136 61.4302 58.1893 61.3875 58.232H61.0355C60.9288 58.424 60.7902 58.584 60.6195 58.712H60.9075C60.7795 58.7973 60.6835 58.8507 60.6195 58.872H60.8755C60.7048 58.9573 60.4915 59 60.2355 59H55.6595C55.5315 59 55.4142 58.9893 55.3075 58.968C55.2222 58.9253 55.1368 58.8933 55.0515 58.872H54.7955C54.7315 58.8507 54.6782 58.8293 54.6355 58.808C54.5928 58.7653 54.5502 58.7333 54.5075 58.712H54.2515C54.1662 58.6267 54.0915 58.5413 54.0275 58.456C53.9635 58.3707 53.9102 58.296 53.8675 58.232H54.2195C54.1982 58.2107 54.1875 58.1787 54.1875 58.136L54.0915 57.912H53.2275L53.0995 57.592H52.1715L52.0435 57.272H54.5075L54.3155 56.792H53.6435L53.3875 56.152H54.0915L53.8355 55.512H52.7475L52.6195 55.192H53.6435L53.4515 54.712H53.9315L53.7395 54.232H53.4515L53.3235 53.912H53.0675L52.8115 53.272H53.2915L53.2275 53.112H54.1875L53.9955 52.632H52.7795L52.5235 51.992H51.4675L51.3075 51.576L51.1475 51.992H51.0195L50.7635 52.632H52.7475L52.5555 53.112H50.9875L50.9235 53.272H51.2115L50.9555 53.912H51.5315L51.4035 54.232H49.8035L49.6115 54.712H50.4755L50.2835 55.192H49.2275L49.0995 55.512H49.6115L49.3555 56.152H49.3875L49.1315 56.792H47.0195L46.8275 57.272H50.1875L50.0595 57.592H49.3555L49.2275 57.912H49.1635L49.0675 58.136L49.0035 58.232H48.0115C47.9688 58.296 47.9155 58.3707 47.8515 58.456C47.8088 58.5413 47.7342 58.6267 47.6275 58.712H47.8195C47.7555 58.776 47.6702 58.8293 47.5635 58.872H48.4275C48.3422 58.8933 48.2462 58.9253 48.1395 58.968C48.0328 58.9893 47.9155 59 47.7875 59H43.2115C42.9555 59 42.7422 58.9573 42.5715 58.872H41.7395C41.6755 58.8507 41.5795 58.7973 41.4515 58.712H41.2275C41.0355 58.5627 40.8968 58.4027 40.8115 58.232H41.8355C41.8142 58.1893 41.7928 58.136 41.7715 58.072C41.7502 58.008 41.7288 57.9547 41.7075 57.912H41.8035L41.7715 57.784L41.7395 57.592H42.4435L42.3795 57.272H39.0515L38.9875 56.792H41.0675L41.0035 56.152H40.9715L40.8755 55.512H40.3635L40.3315 55.192H41.3555L41.2915 54.712H40.4595L40.3955 54.232H41.9955L41.9315 53.912H41.3555L41.2595 53.272H40.9715L40.9395 53.112H42.5075L42.4435 52.632H40.4595L40.3635 51.992H40.4915L40.3955 51.512H40.7475V51.352H41.7715L41.7395 51.192H41.0675L41.0355 51.032H41.3875V50.872H40.7475L40.7155 50.552H40.6835L40.6515 50.232L40.5555 49.592H40.6515L40.5555 48.952H40.6195L40.5875 48.792H40.4595L40.3955 48.312H40.3635L40.2995 47.832H39.9155L39.8515 47.352H39.1795L39.0835 46.712H37.0675V46.552H41.9315L41.8995 46.232H39.9795L39.9155 45.752H37.8995L37.8675 45.432H40.7795L40.6835 44.792H39.9155V44.632H40.3635L40.3315 44.472H41.0035L40.9395 43.992H39.8515L39.8195 43.832H37.3235L37.2595 43.192H40.0435L39.9475 42.552H39.2435L39.2115 42.232H39.4995L39.4355 41.752H39.5315L39.4995 41.592H38.5075L38.4755 41.272H39.1475L39.0835 40.792H39.1475L39.0835 40.312H39.6275L39.5635 39.992H37.8355L37.8035 39.672H39.1795L39.1475 39.352H38.3475L38.3155 39.032H39.3075L39.2435 38.552H38.9235L38.8275 37.912H39.1795L39.1475 37.752L39.0835 37.4V37.272H38.6035C38.6462 36.824 38.8808 36.6 39.3075 36.6H45.2595C45.9208 36.6 46.2942 36.824 46.3795 37.272H46.8595C46.8808 37.3147 46.8915 37.3787 46.8915 37.464L46.9235 37.752L46.9555 37.912H46.6355L46.6995 38.552H47.0195L47.0835 39.032H46.0595L46.1235 39.352H46.8915L46.9235 39.672H45.5475L45.5795 39.992H47.3075L47.3715 40.312H46.8275L46.8595 40.792H46.8275L46.8595 41.272H46.1555L46.2195 41.592H47.1795L47.2115 41.752H47.1155L47.1795 42.232H46.8915L46.9235 42.552H47.6275L47.7235 43.192H44.9075L44.9715 43.832H47.4675L47.4995 43.992H48.5875L48.6515 44.472H47.9795V44.632H47.5315L47.5635 44.792H48.2355L48.2995 44.632H48.6195L48.6835 44.472H50.0275L50.1875 43.992H48.7155L48.7475 43.832H51.2115L51.4355 43.192H48.8435L49.0355 42.552H48.7475V42.488L48.8435 42.232H49.4515C49.4942 42.1467 49.5368 42.0613 49.5795 41.976C49.6435 41.8907 49.7182 41.816 49.8035 41.752H49.6115C49.7182 41.6667 49.8355 41.6133 49.9635 41.592H50.2515C50.3155 41.5707 50.4115 41.56 50.5395 41.56H53.8035C53.9315 41.56 54.0168 41.5707 54.0595 41.592H53.7715C53.8568 41.6133 53.9208 41.6347 53.9635 41.656C54.0275 41.6773 54.0808 41.7093 54.1235 41.752H54.3155C54.4222 41.816 54.4968 41.8907 54.5395 41.976C54.6035 42.0613 54.6462 42.1467 54.6675 42.232H54.0915C54.1555 42.3173 54.1875 42.4027 54.1875 42.488L54.2195 42.552H54.5395L54.7315 43.192H55.9795L56.0755 42.552H55.8835L55.9155 42.232H57.4195L57.4515 41.752H56.0435L56.0755 41.592H55.8195L55.8835 41.272H56.4275L56.4915 40.792H56.2995L56.3635 40.312H56.8115L56.8435 39.992H54.8915L54.9235 39.672H55.4995L55.5315 39.352H56.6195L56.6515 39.032H56.6195L56.6835 38.552L56.7475 37.912H56.1075L56.1395 37.752H56.9075L56.9715 37.464V37.272H57.5795C57.6648 36.824 58.0382 36.6 58.6995 36.6H64.6515C64.8222 36.6 64.9715 36.664 65.0995 36.792C65.2488 36.92 65.3342 37.08 65.3555 37.272H64.7795V37.4L64.7155 37.752H63.9155L63.8835 37.912H64.5555L64.4595 38.552L64.3955 39.032H64.4275L64.3635 39.352H63.2755L63.2435 39.672H62.6675L62.6035 39.992H64.5875L64.5555 40.312H64.1075L64.0435 40.792H64.2035L64.1395 41.272H63.5955L63.5315 41.592H63.7875L63.7555 41.752H65.1635L65.0995 42.232H63.6275L63.5635 42.552H63.7555L63.6595 43.192H62.5075L62.4115 43.832H63.8195L63.7875 43.992H62.1555L62.0915 44.472H63.5955V44.632H63.4995L63.4675 44.792H63.5635L63.4675 45.432H63.9795L63.9155 45.752H60.0115ZM56.1715 43.832H55.0835L55.1155 43.992H56.1395L56.1715 43.832ZM55.4035 44.472L55.4675 44.632H55.1475L55.2115 44.792L55.4355 45.432H51.9795L52.0755 45.752H56.3315L56.3635 45.432H55.8515L55.9475 44.792H55.8515L55.8835 44.632H55.9475L55.9795 44.472H55.4035ZM49.5795 46.232H49.4835L49.5155 46.488L49.5795 46.232ZM57.5795 46.456L57.6115 46.232H57.4835L57.5795 46.456ZM87.9618 42.872H86.9058L86.8738 43.032H89.9138L89.7218 43.672H87.1618L87.0018 44.312H86.8738L86.7778 44.632H84.3458L84.1538 45.272H82.6818L82.5858 45.592H86.2978L86.2658 45.752H86.4578L86.2658 46.392H85.8178L85.6898 46.872H86.2658L86.1698 47.192H86.2978L86.2018 47.512H85.3378L85.2098 47.992H85.8178L85.7218 48.312H84.8577L84.7938 48.632H84.0898L83.9618 49.112H83.6418L83.5458 49.432H85.0498L84.9538 49.752H86.0098L85.9458 49.912H82.8418L82.6497 50.552H83.9298L83.8018 51.032H82.4578L82.2658 51.672H83.9938L83.8337 52.152H84.1217L84.0898 52.312H84.2818L84.2178 52.472H84.3458L84.3138 52.632H84.0898L83.9938 52.952H83.6737L83.5458 53.432H83.7058L83.6098 53.752H83.6737L83.5138 54.232H83.5458L83.4178 54.712H83.3857L83.2257 55.192H82.8098L82.7138 55.512H82.8418L82.8098 55.672H83.0658L82.8738 56.312H83.1298L83.0338 56.632H82.8738L82.7458 57.112H83.0018L82.9058 57.432H82.5858L82.5218 57.752H81.8178L81.7537 57.944L81.7218 58.072H83.4178C83.3111 58.3067 83.1511 58.52 82.9377 58.712H78.8418C78.7778 58.776 78.6924 58.8293 78.5858 58.872H82.1058C82.0204 58.8933 81.9244 58.9253 81.8178 58.968C81.7111 58.9893 81.5938 59 81.4658 59H74.1698C74.0417 59 73.9244 58.9893 73.8177 58.968C73.7324 58.9253 73.6364 58.8933 73.5298 58.872H69.9777C69.8924 58.8293 69.8071 58.776 69.7218 58.712H73.7858C73.5724 58.52 73.4124 58.3067 73.3058 58.072H71.6418C71.6204 58.0507 71.6098 58.0293 71.6098 58.008C71.6098 57.9867 71.5991 57.9653 71.5778 57.944L71.5138 57.752H72.2178L72.1218 57.432H72.4418L72.3458 57.112H72.0578L71.9297 56.632H72.0578L71.9618 56.312H71.7378L71.5458 55.672H71.2898L71.2578 55.512H71.1298L71.0338 55.192H71.4497L71.2898 54.712H71.3218L71.1937 54.232H71.1618L71.0338 53.752H70.9697L70.8738 53.432H70.7137L70.5858 52.952H70.8738L70.7778 52.632H71.0017L70.9697 52.472H70.8418L70.7778 52.312H70.5858L70.5538 52.152H70.2657L70.1058 51.672H68.3777L68.1858 51.032H69.5298L69.4018 50.552H68.1217L67.9297 49.912H71.0338L71.0017 49.752H69.9777L69.8818 49.432H70.8738L70.7778 49.112H69.4018L69.2738 48.632H69.7218L69.6258 48.312H69.4337L69.3377 47.992H69.8498L69.7218 47.512H69.0498L68.9537 47.192H70.1698L70.0738 46.872H68.8577L68.7297 46.392H69.0817L68.8898 45.752H67.7697L67.7057 45.592H67.8657L67.7697 45.272H69.1458L68.9537 44.632H68.0898L67.9937 44.312H68.2497L68.0898 43.672H70.0097L69.8177 43.032H66.8417L66.7777 42.872H73.4338L73.3378 42.552H69.7537L69.5938 42.072H71.8658L71.6737 41.432H71.4177L71.2257 40.792H70.1058L70.0097 40.472H66.9057L66.7137 39.832H66.9377L66.8417 39.512L66.8097 39.352H66.6497L66.5857 39.192L66.3937 38.552H66.2337L66.1697 38.392H65.9137L65.7857 37.912H63.4497L63.3857 37.752H65.2097L65.1457 37.528C65.1457 37.5067 65.1457 37.496 65.1457 37.496C65.1244 37.4747 65.1137 37.4533 65.1137 37.432H65.4977V37.304C65.4977 37.112 65.5724 36.9413 65.7217 36.792H64.3137C64.4417 36.664 64.6017 36.6 64.7937 36.6H70.7457C71.0657 36.6 71.3218 36.664 71.5138 36.792H72.9218C73.1778 36.9413 73.3804 37.1547 73.5298 37.432H73.1137L73.2098 37.656L73.2418 37.752H71.4177L71.4497 37.912H73.7858L73.9138 38.392H74.1698L74.2017 38.552H74.3938L74.5538 39.192L74.5858 39.352H74.7778L74.8098 39.512H74.7778L74.8738 39.832H74.6818L74.8418 40.472H77.9458L78.0098 40.792H79.2898L79.3858 40.472H79.5458L79.7058 39.832H79.8018L79.8658 39.512H79.9618L79.9938 39.352H79.1618L79.1938 39.192H79.9938L80.1538 38.552H79.5458L79.5778 38.392H77.1138L77.2418 37.912H78.3618L78.3938 37.752H76.2818L76.3138 37.656C76.3351 37.6133 76.3458 37.5707 76.3458 37.528C76.3458 37.4853 76.3564 37.4533 76.3778 37.432H80.2178C80.3244 37.1547 80.5164 36.9413 80.7938 36.792H81.9778C82.2124 36.664 82.4791 36.6 82.7778 36.6H88.7298C88.9218 36.6 89.0818 36.664 89.2098 36.792H87.9938C88.1431 36.9413 88.2178 37.112 88.2178 37.304V37.432H84.4097C84.3884 37.4533 84.3778 37.4853 84.3778 37.528L84.3138 37.752H86.4258L86.3938 37.912H85.2418L85.1138 38.392H87.5778L87.5458 38.552H88.1218L87.9298 39.192H87.1618L87.1298 39.352H87.9618L87.9298 39.512H87.8338L87.7378 39.832H87.6418L87.4498 40.472H87.2898L87.1938 40.792H86.9698L86.8098 41.432H90.7778L90.5858 42.072H88.3778L88.2178 42.552H88.0258L87.9618 42.872ZM77.4658 42.072L77.5618 42.552H80.3778L80.5058 42.072H82.7458L82.9058 41.432H79.5458L79.7058 42.072H77.4658ZM81.9137 43.672L82.0738 43.032H79.0658L79.0978 42.872H74.6178L74.6498 43.032H77.6258L77.8177 43.672H75.8658L76.0258 44.312H75.7698L75.8658 44.632H79.0338L79.0978 44.312H79.2258L79.3858 43.672H81.9137ZM78.7458 45.752H78.5538L78.5858 45.592H75.4497L75.4818 45.752H76.6018L76.7618 46.392H76.4097L76.5378 46.872H77.7218L77.8177 47.192H76.6018L76.6978 47.512H77.3698L77.4658 47.992H76.9538L77.0498 48.312H77.2098L77.2418 48.408L77.2738 48.312H78.1058L78.2018 47.992H77.5938L77.6898 47.512H78.5858L78.6498 47.192H78.5218L78.5858 46.872H78.0417L78.1378 46.392H78.5858L78.7458 45.752ZM64.1764 82.512V82.672H66.6724V82.992H66.5444V83.472H59.9204V83.632H61.0724V84.112H64.5924V84.432H62.7684V85.072H62.6724V85.232H60.5604V85.712H63.6964V85.872H63.8244V86.352H64.1444V86.992H57.9684V87.472H64.4964V87.792H62.3204V88.272H62.0324V88.592H62.7684V88.912H62.2884V89.232H63.4084L63.3124 89.552H64.8164C64.7737 89.616 64.7204 89.68 64.6564 89.744C64.6137 89.7867 64.5604 89.8293 64.4964 89.872H65.2324C65.1257 89.9573 64.9764 90 64.7844 90H58.5124C58.3204 90 58.171 89.9573 58.0644 89.872H57.3284C57.179 89.808 57.0724 89.7013 57.0084 89.552H55.5044L55.4084 89.232H54.2884V88.912H54.7684V88.592H54.0324V88.272H54.3204V87.792H56.4964V87.472H50.7044V87.792H48.0484V88.272H49.8724V88.592H49.4244V88.912H51.0884V89.232H49.2964L49.2004 89.552H49.9044C49.819 89.7013 49.723 89.808 49.6164 89.872H48.8484C48.7417 89.9573 48.5924 90 48.4004 90H42.1284C41.915 90 41.755 89.9573 41.6484 89.872H42.4164C42.3097 89.808 42.2137 89.7013 42.1284 89.552H41.3924C41.3284 89.4453 41.2964 89.3387 41.2964 89.232H43.0884V88.912H41.4244V88.592H41.8724V88.272H40.0484V87.792H42.7044V87.472H44.2404V86.992H39.3124V86.352H41.1364V85.872H42.4164V85.712H41.5204V85.232H40.0164V85.072H40.3364V84.432H41.3604V84.112H41.8404V83.632H39.5364V83.472H45.4564V82.992H38.2244V82.672H45.0404V82.512H41.7124V82.032H43.6324V81.872H44.0164V81.712H43.8564V81.072H40.6884V80.592H41.7444V80.432H41.4564V79.952H41.5844V79.792H41.6164V79.472H41.6484V79.312H41.2324V79.152H39.9844V78.672H40.4004V78.192H39.7604V77.712H41.3604V77.072H41.0084V76.752H38.6724V76.592H42.4164V76.272H43.3124V76.112H34.6724V75.952H39.7604V75.792H41.5844V75.312H38.3204V74.672H37.4244V74.192H41.2644V73.552H41.5844V73.072H43.6324V72.912H41.8724V72.272H43.3124V71.952H41.5844V71.792H40.9764V71.472H40.0484V71.152H38.9284V70.512H40.9444V70.032H42.1604V69.552H41.5844V69.232H40.7844V69.072H41.2324V68.752H41.1364V68.464C41.1364 68.3147 41.1684 68.1973 41.2324 68.112H43.2804C43.3017 68.048 43.3337 67.9947 43.3764 67.952C43.419 67.888 43.4617 67.8347 43.5044 67.792H48.4324C48.5604 67.664 48.7417 67.6 48.9764 67.6H61.2644C61.4777 67.6 61.659 67.664 61.8084 67.792H66.7364C66.779 67.8347 66.8217 67.888 66.8644 67.952C66.9284 67.9947 66.971 68.048 66.9924 68.112H62.8644C62.907 68.24 62.9284 68.3573 62.9284 68.464V68.752H63.0884V69.072H63.5364V69.232H62.6724V69.552H62.2884V70.032H63.5364V70.512H60.5284V71.152H63.9844V71.472H61.4884V71.792H62.5124V71.952H62.0004V72.272H64.4004V72.912H60.8804V73.072H63.6004V73.552H63.1204V74.192H60.5604V74.672H59.5044V75.312H62.7684V75.792H60.9444V75.952H55.8564V76.112H64.4964V76.272H63.6004V76.592H59.8564V76.752H62.1924V77.072H62.5444V77.712H60.9444V78.192H61.5844V78.672H61.1684V79.152H62.4164V79.312H62.8324V79.472H62.8004V79.792H62.7684V79.952H62.6404V80.432H62.9284V80.592H61.8724V81.072H65.0404V81.712H65.2004V81.872H64.8164V82.032H62.8964V82.512H64.1764ZM45.4244 74.192V74.672H46.3204V75.184H51.5044V74.672H52.5604V74.192H55.1204V73.552H55.6004V73.072H52.8804V72.912H56.4004V72.272H54.0004V71.952H54.5124V71.792H53.4884V71.472H55.9844V71.152H52.5284V70.512H55.5364V70.032H54.2884V69.552H54.6724V69.232H55.5364V69.072H55.0884V68.752H54.9284V68.464C54.9284 68.3573 54.9497 68.24 54.9924 68.112H59.1204C59.163 68.048 59.2057 67.9947 59.2484 67.952C59.291 67.888 59.3337 67.8347 59.3764 67.792H50.8644C50.971 67.8773 51.0564 67.984 51.1204 68.112H49.0724C49.115 68.176 49.1364 68.2933 49.1364 68.464V68.752H49.2324V69.072H48.7844V69.232H49.5844V69.552H50.1604V70.032H48.9444V70.512H46.9284V71.152H48.0484V71.472H48.9764V71.792H49.5844V71.952H51.3124V72.272H49.8724V72.912H51.6324V73.072H49.5844V73.552H49.2644V74.192H45.4244ZM58.6724 82.992V82.672H56.1764V82.512H54.8964V82.224H49.7124V82.512H53.0404V82.672H46.2244V82.992H53.4564V83.472H58.5444V82.992H58.6724ZM56.5924 84.112H53.0724V83.632H51.9204V83.472H47.5364V83.632H49.8404V84.112H49.3604V84.432H48.3364V85.072H48.0164V85.232H49.5204V85.712H50.4164V85.872H49.1364V86.352H47.3124V86.992H56.1444V86.352H55.8244V85.872H55.6964V85.712H52.5604V85.232H54.6724V85.072H54.7684V84.432H56.5924V84.112ZM86.3671 86.832H85.0551L84.7671 87.152H89.6631C89.6418 87.1733 89.6205 87.1947 89.5991 87.216C89.5778 87.2373 89.5458 87.2693 89.5031 87.312H81.9511C81.8445 87.4187 81.7271 87.5253 81.5991 87.632C81.4925 87.7387 81.3751 87.8453 81.2471 87.952H83.5831L83.1671 88.272H87.5191L87.2631 88.432H85.3751C85.3538 88.4533 85.3111 88.4747 85.2471 88.496C85.2045 88.5173 85.1618 88.5493 85.1191 88.592H82.9751L82.0791 89.072H83.3271C83.0498 89.2 82.7725 89.3173 82.4951 89.424C82.2178 89.5093 81.9298 89.6053 81.6311 89.712H80.4791C79.7538 89.9253 78.9645 90.0853 78.1111 90.192H78.2711C77.9298 90.2347 77.5778 90.2667 77.2151 90.288C76.8525 90.3093 76.4898 90.32 76.1271 90.32C75.7218 90.32 75.3165 90.3093 74.9111 90.288C74.5271 90.2667 74.1538 90.2347 73.7911 90.192H73.6631C72.7458 90.0853 71.9245 89.9253 71.1991 89.712H72.3511C72.0311 89.6053 71.7325 89.5093 71.4551 89.424C71.1778 89.3173 70.9005 89.2 70.6231 89.072H69.3751C69.2258 88.9867 69.0765 88.912 68.9271 88.848C68.7778 88.7627 68.6285 88.6773 68.4791 88.592H70.6551L70.3991 88.432H72.2871C72.2658 88.3893 72.2338 88.3573 72.1911 88.336C72.1485 88.3147 72.1058 88.2933 72.0631 88.272H67.7111C67.6258 88.2293 67.5511 88.176 67.4871 88.112C67.4231 88.048 67.3591 87.9947 67.2951 87.952H64.9271C64.8205 87.8453 64.7138 87.7387 64.6071 87.632C64.4791 87.5253 64.3618 87.4187 64.2551 87.312H71.8071C71.7858 87.2693 71.7645 87.2373 71.7431 87.216C71.7218 87.1947 71.7005 87.1733 71.6791 87.152H66.7831C66.6978 87.0667 66.6125 86.96 66.5271 86.832H67.8391C67.8178 86.7893 67.7965 86.7573 67.7751 86.736C67.7538 86.7147 67.7325 86.6933 67.7111 86.672H71.7111L71.4231 86.192H69.4391L69.3431 86.032H64.8311C64.8098 85.9467 64.7778 85.872 64.7351 85.808C64.6925 85.7227 64.6498 85.6373 64.6071 85.552H66.7511L66.5591 85.072H65.7911L65.7271 84.912H66.0791C66.0578 84.8267 66.0365 84.752 66.0151 84.688C65.9938 84.6027 65.9725 84.5173 65.9511 84.432H65.6951C65.6951 84.3467 65.6845 84.272 65.6631 84.208C65.6631 84.1227 65.6525 84.0373 65.6311 83.952H65.3751C65.3751 83.8667 65.3645 83.792 65.3431 83.728C65.3431 83.664 65.3431 83.5893 65.3431 83.504V83.472H65.3111C65.3111 83.4293 65.3111 83.3973 65.3111 83.376C65.3325 83.3547 65.3431 83.3333 65.3431 83.312H66.0791C66.1858 82.9707 66.4098 82.8 66.7511 82.8H72.8311C73.1725 82.8 73.4285 82.8427 73.5991 82.928C73.7698 83.0133 73.9618 83.1413 74.1751 83.312H73.4391L73.4711 83.344C73.5138 83.3653 73.5458 83.3867 73.5671 83.408C73.6098 83.4293 73.6418 83.4507 73.6631 83.472H73.6951C73.9725 83.6853 74.3138 83.8453 74.7191 83.952H75.0071C75.2845 84.0373 75.6578 84.08 76.1271 84.08C76.4045 84.08 76.6605 84.0693 76.8951 84.048C77.1298 84.0267 77.3325 83.9947 77.5031 83.952H77.4071C77.8978 83.8453 78.2071 83.6853 78.3351 83.472H78.2711C78.3138 83.3867 78.3351 83.3333 78.3351 83.312H78.6551L78.6871 83.184C78.6871 82.992 78.6125 82.8213 78.4631 82.672H78.2071C78.0151 82.48 77.6738 82.32 77.1831 82.192H77.0871C76.8951 82.128 76.6711 82.0747 76.4151 82.032C76.1591 81.968 75.8605 81.9147 75.5191 81.872H75.3271L74.0151 81.68C73.8658 81.6587 73.7165 81.6373 73.5671 81.616C73.4391 81.5947 73.3005 81.5733 73.1511 81.552C72.2765 81.4027 71.4338 81.1893 70.6231 80.912H70.0471C69.7485 80.8053 69.4711 80.6987 69.2151 80.592H68.7671C68.6605 80.5493 68.5538 80.5067 68.4471 80.464C68.3405 80.4 68.2338 80.336 68.1271 80.272H65.3431C65.1938 80.1867 65.0551 80.112 64.9271 80.048C64.7991 79.9627 64.6711 79.8773 64.5431 79.792H70.4951C70.3885 79.7067 70.2818 79.632 70.1751 79.568C70.0898 79.4827 69.9938 79.3973 69.8871 79.312H63.5191C63.4551 79.2693 63.4018 79.216 63.3591 79.152C63.2951 79.088 63.2418 79.0347 63.1991 78.992H64.8631C64.6711 78.7787 64.4898 78.5653 64.3191 78.352H64.7991L64.6071 78.032H61.5351C61.5138 77.9893 61.4925 77.9573 61.4711 77.936C61.4498 77.9147 61.4391 77.8933 61.4391 77.872H68.7351C68.6925 77.7867 68.6498 77.712 68.6071 77.648C68.5645 77.5627 68.5218 77.4773 68.4791 77.392H62.8791L62.6871 76.912H67.1991L67.1351 76.752H65.7911L65.7271 76.592H66.3671C66.3671 76.5493 66.3565 76.5173 66.3351 76.496C66.3351 76.4747 66.3351 76.4533 66.3351 76.432H66.2071L66.1111 76.112H65.9191L65.8871 75.792H65.8231V75.632H64.7991C64.7778 75.5893 64.7671 75.536 64.7671 75.472C64.7671 75.408 64.7671 75.3547 64.7671 75.312H63.8391L63.8071 74.992H67.4551C67.4338 74.9493 67.4231 74.896 67.4231 74.832C67.4231 74.768 67.4231 74.7147 67.4231 74.672H67.9351V74.64C67.9351 74.5333 67.9351 74.4267 67.9351 74.32C67.9351 74.2133 67.9458 74.1173 67.9671 74.032H66.5911C66.6125 73.9467 66.6231 73.872 66.6231 73.808C66.6231 73.7227 66.6338 73.6373 66.6551 73.552H68.8951C68.8951 73.5093 68.8951 73.4773 68.8951 73.456C68.9165 73.4347 68.9271 73.4133 68.9271 73.392H66.6551C66.6978 73.264 66.7191 73.1573 66.7191 73.072H66.3671L66.4631 72.752H65.9191C65.9831 72.5173 66.0578 72.304 66.1431 72.112H66.3991L66.5271 71.792H66.8791L67.1671 71.312H66.8471C66.9111 71.2267 66.9645 71.152 67.0071 71.088C67.0711 71.0027 67.1245 70.9173 67.1671 70.832H66.9111L67.2951 70.352H67.9671C67.9885 70.3093 68.0098 70.2773 68.0311 70.256C68.0525 70.2347 68.0738 70.2133 68.0951 70.192H67.1991C67.2845 70.1067 67.3698 70.032 67.4551 69.968C67.5405 69.8827 67.6258 69.7973 67.7111 69.712H68.2231C68.3511 69.6053 68.4791 69.4987 68.6071 69.392C68.7351 69.264 68.8738 69.1573 69.0231 69.072H69.5991C69.7271 68.9867 69.8551 68.912 69.9831 68.848C70.1111 68.7627 70.2498 68.6773 70.3991 68.592H70.3031C70.3458 68.5493 70.3991 68.5173 70.4631 68.496C70.5271 68.4747 70.5805 68.4533 70.6231 68.432H70.1751C70.2178 68.3893 70.2711 68.3573 70.3351 68.336C70.3991 68.3147 70.4631 68.2933 70.5271 68.272H70.2071C70.5058 68.144 70.8151 68.0267 71.1351 67.92C71.4765 67.8133 71.8178 67.7173 72.1591 67.632H72.6391C73.1298 67.5253 73.6418 67.44 74.1751 67.376C74.7298 67.312 75.3058 67.28 75.9031 67.28C77.0338 67.28 78.1005 67.3973 79.1031 67.632H78.6551C79.3378 67.7813 79.9991 67.9947 80.6391 68.272H80.9271C80.9911 68.2933 81.0551 68.3147 81.1191 68.336C81.1831 68.3573 81.2471 68.3893 81.3111 68.432H81.7591C81.8018 68.4533 81.8551 68.4747 81.9191 68.496C81.9831 68.5173 82.0365 68.5493 82.0791 68.592H82.1751C82.3245 68.6773 82.4631 68.7627 82.5911 68.848C82.7405 68.912 82.8791 68.9867 83.0071 69.072H82.4631C82.6338 69.1573 82.7831 69.264 82.9111 69.392C83.0605 69.4987 83.1991 69.6053 83.3271 69.712H82.8471L83.3591 70.192H84.2551L84.4151 70.352H83.7431C83.8285 70.4373 83.9031 70.5227 83.9671 70.608C84.0525 70.672 84.1271 70.7467 84.1911 70.832H84.4471L84.8311 71.312H85.1191L85.4071 71.792H85.0551C85.1191 71.8987 85.1725 72.0053 85.2151 72.112H84.9591C85.0231 72.2187 85.0765 72.3253 85.1191 72.432C85.1618 72.5387 85.2045 72.6453 85.2471 72.752H85.7911C85.8338 72.88 85.8551 72.9867 85.8551 73.072H86.2391C86.2605 73.1147 86.2711 73.168 86.2711 73.232C86.2711 73.296 86.2818 73.3493 86.3031 73.392H88.5751V73.552H86.5271C86.5485 73.6373 86.5591 73.7547 86.5591 73.904V74.032H85.3751C85.2898 74.416 85.0765 74.608 84.7351 74.608H78.3351C78.0365 74.608 77.7911 74.5653 77.5991 74.48C77.4285 74.3947 77.2471 74.2667 77.0551 74.096L76.9591 74.032H78.1431C78.0365 73.9467 77.8871 73.8613 77.6951 73.776C77.5031 73.6693 77.2578 73.5947 76.9591 73.552H75.8071C75.3591 73.616 75.0498 73.776 74.8791 74.032H76.2551C76.1911 74.16 76.1591 74.288 76.1591 74.416C76.1591 74.5227 76.1698 74.608 76.1911 74.672H75.7111C75.7325 74.7787 75.8178 74.8853 75.9671 74.992H72.3511C72.4791 75.0987 72.7031 75.2053 73.0231 75.312H73.9511C74.1218 75.376 74.3245 75.44 74.5591 75.504C74.8151 75.5467 75.0818 75.5893 75.3591 75.632H76.3831C76.5538 75.6533 76.7351 75.6747 76.9271 75.696C77.1191 75.7173 77.3218 75.7493 77.5351 75.792H77.5671C77.9298 75.8347 78.2818 75.888 78.6231 75.952C78.9645 75.9947 79.2845 76.048 79.5831 76.112H79.7751C80.0311 76.1547 80.2658 76.208 80.4791 76.272C80.7138 76.3147 80.9378 76.368 81.1511 76.432H81.2791C81.3858 76.4533 81.4818 76.4747 81.5671 76.496C81.6525 76.5173 81.7378 76.5493 81.8231 76.592H81.2151C81.3005 76.6133 81.3751 76.6347 81.4391 76.656C81.5245 76.6773 81.6098 76.7093 81.6951 76.752H83.0391C83.1031 76.7733 83.1671 76.7947 83.2311 76.816C83.3165 76.8373 83.3911 76.8693 83.4551 76.912H78.9431C79.3698 77.0827 79.7111 77.2427 79.9671 77.392H85.5671C85.6951 77.4773 85.8231 77.5627 85.9511 77.648C86.0791 77.712 86.1965 77.7867 86.3031 77.872H79.0071C79.0498 77.8933 79.0925 77.9147 79.1351 77.936C79.1778 77.9573 79.2098 77.9893 79.2311 78.032H82.3031C82.3671 78.0747 82.4311 78.128 82.4951 78.192C82.5591 78.256 82.6125 78.3093 82.6551 78.352H82.1751C82.3885 78.544 82.5698 78.7573 82.7191 78.992H81.0551C81.0978 79.0347 81.1405 79.088 81.1831 79.152C81.2258 79.216 81.2578 79.2693 81.2791 79.312H87.6151L87.9031 79.792H81.9511C81.9938 79.8773 82.0365 79.9627 82.0791 80.048C82.1218 80.112 82.1538 80.1867 82.1751 80.272H84.9271L85.0231 80.592H85.4711L85.5671 80.912H86.1431C86.1858 80.9973 86.2071 81.104 86.2071 81.232C86.2285 81.3387 86.2498 81.4453 86.2711 81.552L86.3031 81.872H86.4951C86.5165 81.9147 86.5271 81.968 86.5271 82.032C86.5271 82.096 86.5271 82.1493 86.5271 82.192H86.6231V82.672H86.9111V82.768C86.9111 82.8533 86.9005 82.9387 86.8791 83.024C86.8791 83.1093 86.8791 83.2053 86.8791 83.312H86.5591V83.472H86.6231C86.6231 83.5573 86.6125 83.6427 86.5911 83.728C86.5911 83.792 86.5805 83.8667 86.5591 83.952H86.6551L86.5591 84.432H86.8151C86.7938 84.5173 86.7725 84.6027 86.7511 84.688C86.7298 84.752 86.6978 84.8267 86.6551 84.912H86.3031C86.3031 84.9333 86.2925 84.9547 86.2711 84.976C86.2711 84.9973 86.2711 85.0293 86.2711 85.072H87.0391L86.8471 85.552H84.7031C84.6818 85.6373 84.6391 85.7227 84.5751 85.808C84.5325 85.872 84.4898 85.9467 84.4471 86.032H88.9591L88.8631 86.192H90.8151C90.7725 86.2773 90.7191 86.3627 90.6551 86.448C90.6125 86.512 90.5591 86.5867 90.4951 86.672H86.4951C86.4738 86.6933 86.4525 86.7147 86.4311 86.736C86.4098 86.7573 86.3885 86.7893 86.3671 86.832ZM78.0471 73.552H79.0071C78.9431 73.5307 78.8685 73.52 78.7831 73.52C78.7191 73.52 78.6445 73.52 78.5591 73.52C78.4738 73.52 78.3885 73.52 78.3031 73.52C78.2178 73.52 78.1325 73.5307 78.0471 73.552Z" fill="#BF9763"/>
<defs>
<clipPath id="clip0_98_100">
<rect width="126" height="131" fill="white"/>
</clipPath>
</defs>
</svg>
